<svg width="21" height="20" viewBox="0 0 21 20" fill="none" xmlns="http://www.w3.org/2000/svg">
<path d="M10 10.25C10 10.0511 10.079 9.86032 10.2197 9.71967C10.3603 9.57902 10.5511 9.5 10.75 9.5C10.9489 9.5 11.1397 9.42098 11.2803 9.28033C11.421 9.13968 11.5 8.94891 11.5 8.75C11.5 8.55109 11.421 8.36032 11.2803 8.21967C11.1397 8.07902 10.9489 8 10.75 8C10.1533 8 9.58097 8.23705 9.15901 8.65901C8.73705 9.08097 8.5 9.65326 8.5 10.25C8.5 10.4489 8.57902 10.6397 8.71967 10.7803C8.86032 10.921 9.05109 11 9.25 11C9.44891 11 9.63968 10.921 9.78033 10.7803C9.92098 10.6397 10 10.4489 10 10.25ZM5.5 10.5C5.5 9.04131 6.07946 7.64236 7.11091 6.61091C8.14236 5.57946 9.54131 5 11 5C12.4587 5 13.8576 5.57946 14.8891 6.61091C15.9205 7.64236 16.5 9.04131 16.5 10.5C16.5 11.9587 15.9205 13.3576 14.8891 14.3891C13.8576 15.4205 12.4587 16 11 16C9.54131 16 8.14236 15.4205 7.11091 14.3891C6.07946 13.3576 5.5 11.9587 5.5 10.5ZM11 6.5C9.93913 6.5 8.92172 6.92143 8.17157 7.67157C7.42143 8.42172 7 9.43913 7 10.5C7 11.5609 7.42143 12.5783 8.17157 13.3284C8.92172 14.0786 9.93913 14.5 11 14.5C12.0609 14.5 13.0783 14.0786 13.8284 13.3284C14.5786 12.5783 15 11.5609 15 10.5C15 9.43913 14.5786 8.42172 13.8284 7.67157C13.0783 6.92143 12.0609 6.5 11 6.5ZM4.715 4.494C6.188 1.825 8.883 0 12 0C16.76 0 20.5 4.221 20.5 9.275C20.4993 9.84167 20.454 10.395 20.364 10.935C20.307 11.279 20.319 11.645 20.388 12.018C20.4613 12.4187 20.4987 12.8293 20.5 13.25C20.5002 14.3969 20.2083 15.5249 19.6516 16.5276C19.095 17.5303 18.2921 18.3747 17.3186 18.981C16.3451 19.5873 15.2332 19.9356 14.0878 19.993C12.9424 20.0504 11.8012 19.815 10.772 19.309C9.9741 18.9268 9.07951 18.794 8.205 18.928C7.88909 18.9774 7.56974 19.0015 7.25 19C3.467 19 0.5 15.696 0.5 11.75C0.5 9.179 1.748 6.9 3.66 5.61C4.106 5.307 4.474 4.929 4.715 4.494ZM12 1.5C9.499 1.5 7.273 2.964 6.028 5.219C5.653 5.897 5.106 6.442 4.498 6.852C3.013 7.857 2 9.664 2 11.75C2 14.983 4.406 17.5 7.25 17.5C7.498 17.5 7.74133 17.4817 7.98 17.445C9.15723 17.2651 10.3613 17.4457 11.434 17.963C12.308 18.3928 13.2844 18.5711 14.2539 18.4777C15.2235 18.3844 16.1479 18.0232 16.9239 17.4345C17.6999 16.8458 18.2968 16.0529 18.6479 15.1443C18.999 14.2358 19.0905 13.2475 18.912 12.29C18.8093 11.7624 18.7998 11.2209 18.884 10.69C18.9607 10.2313 18.9993 9.75967 19 9.275C19 4.912 15.8 1.5 12 1.5Z" fill="#1C2024"/>
</svg>
