<svg width="13" height="14" viewBox="0 0 13 14" fill="none" xmlns="http://www.w3.org/2000/svg">
<path d="M1.98088 2.67757V2.67778V2.67757ZM6.88975 0L5.45688 0.000508323V0.000711673H5.45617C4.9636 0.000711673 4.56446 0.406291 4.56446 0.906433V0.992348L0.443616 0.99245C0.19868 0.99245 0 1.19407 0 1.44288V2.23634C0 2.48513 0.198672 2.68676 0.443616 2.68676H0.973544V2.68707L11.3729 2.68717L11.373 2.68697V2.68717H11.3791L11.903 2.68697C12.0206 2.68697 12.1334 2.63948 12.2166 2.55509C12.2998 2.4706 12.3466 2.35602 12.3466 2.23655V1.44257C12.3466 1.32311 12.2998 1.20862 12.2166 1.12414C12.1334 1.03965 12.0206 0.992166 11.903 0.992166L7.78213 0.992268V0.906251C7.78213 0.665892 7.6881 0.435392 7.52068 0.265398C7.35335 0.095501 7.12633 3.55961e-05 6.88962 3.55961e-05L6.88975 0ZM6.38725 4.45898C6.55117 4.45918 6.68395 4.5941 6.68395 4.76055L6.68415 11.2794C6.68415 11.3595 6.65281 11.4362 6.59713 11.4927C6.54136 11.5494 6.46585 11.5811 6.38704 11.5814L5.95966 11.5811V11.5814C5.88085 11.5811 5.80535 11.5494 5.74957 11.4927C5.69389 11.4362 5.66255 11.3595 5.66255 11.2794L5.66275 4.76055C5.66275 4.59441 5.79513 4.4596 5.95866 4.4596L5.95906 4.45991L5.96156 4.4593L5.96196 4.4592L6.38645 4.45899L6.38725 4.45898ZM3.72146 4.44749L3.71555 4.45349V4.45369H3.71595C3.87516 4.45369 4.00675 4.5819 4.01226 4.74469L4.23427 11.2597C4.23697 11.3397 4.20833 11.4175 4.15456 11.4759L4.15446 11.476C4.10068 11.5345 4.02628 11.5689 3.94758 11.5716L3.52039 11.5866C3.51779 11.5867 3.51278 11.5868 3.51018 11.5868C3.43508 11.5868 3.36258 11.5579 3.3075 11.5056C3.24982 11.4511 3.21598 11.3755 3.21327 11.2956L2.99177 4.78058C2.98606 4.61404 3.11444 4.47443 3.27837 4.46866L3.70514 4.45371V4.45391C3.70665 4.45371 3.70795 4.45361 3.70925 4.45361C3.71105 4.45361 3.71296 4.45371 3.71436 4.45391L3.71476 4.45351L3.72146 4.44749ZM8.63442 4.45349C8.63683 4.45359 8.63933 4.45359 8.64143 4.45369V4.45389L9.0682 4.46864C9.23213 4.47443 9.3605 4.61403 9.35481 4.78056L9.1333 11.2955C9.1306 11.3755 9.09675 11.4511 9.03917 11.5056C8.9841 11.5579 8.9115 11.5867 8.8364 11.5867C8.83379 11.5867 8.82878 11.5866 8.82618 11.5865L8.399 11.5716V11.5718C8.32029 11.5689 8.24579 11.5344 8.19211 11.4759C8.13834 11.4175 8.1096 11.3396 8.1124 11.2597L8.33431 4.74467C8.33982 4.5822 8.47099 4.45419 8.6298 4.45419L8.6302 4.4544L8.63261 4.45379L8.63351 4.45358V4.45348L8.63442 4.45349ZM1.00978 3.34807L1.43465 11.1005L1.43565 11.1146C1.4723 11.5605 1.50455 12.366 2.03977 12.8064V12.8066C2.53786 13.2162 3.38031 13.2097 3.91805 13.2221L3.92937 13.2222L5.27011 13.2228L5.26931 13.223C5.27792 13.2232 5.28653 13.2234 5.29524 13.2234L5.29544 13.2237L6.16652 13.2231L7.05042 13.2235L7.05062 13.2237C7.05903 13.2235 7.06745 13.2233 7.07576 13.2229H7.07656L7.07586 13.2231L8.4165 13.2224L8.42781 13.2222C8.96556 13.2098 9.808 13.2164 10.3061 12.8069V12.8066C10.8413 12.3663 10.8737 11.5609 10.9103 11.1149L10.9113 11.1008L11.3366 3.34839L1.00978 3.34807Z" fill="#FF6161"/>
</svg>
