<svg width="19" height="22" viewBox="0 0 19 22" fill="none" xmlns="http://www.w3.org/2000/svg">
<path d="M0.5 8.75V7.625C0.49996 7.13288 0.607542 6.6467 0.815206 6.20054C1.02287 5.75438 1.32559 5.35904 1.70216 5.04221C2.07872 4.72538 2.52002 4.49473 2.99512 4.36643C3.47023 4.23814 3.96764 4.21529 4.4525 4.2995C4.76809 3.20464 5.4311 2.24208 6.34157 1.55699C7.25203 0.871889 8.36057 0.501404 9.5 0.501404C10.6394 0.501404 11.748 0.871889 12.6584 1.55699C13.5689 2.24208 14.2319 3.20464 14.5475 4.2995C15.0324 4.21529 15.5298 4.23814 16.0049 4.36643C16.48 4.49473 16.9213 4.72538 17.2978 5.04221C17.6744 5.35904 17.9771 5.75438 18.1848 6.20054C18.3925 6.6467 18.5 7.13288 18.5 7.625V8.75C18.5003 11.0073 17.6524 13.1824 16.1243 14.8439C14.5962 16.5053 12.4995 17.5319 10.25 17.72V20H8.75V17.72C6.50051 17.5319 4.40384 16.5053 2.87574 14.8439C1.34763 13.1824 0.499673 11.0073 0.5 8.75ZM7.229 7.9985H11.771C11.7043 7.40414 11.797 6.80274 12.0395 6.25603C12.282 5.70932 12.6656 5.23698 13.151 4.8875C12.9567 4.06514 12.4905 3.33246 11.8279 2.80813C11.1652 2.28379 10.345 1.99852 9.5 1.99852C8.65501 1.99852 7.83476 2.28379 7.17213 2.80813C6.50949 3.33246 6.04328 4.06514 5.849 4.8875C6.33459 5.23711 6.71836 5.70969 6.96089 6.25669C7.20341 6.8037 7.29595 7.4054 7.229 8V7.9985ZM5.5205 7.9985C5.57612 7.75158 5.57549 7.4953 5.51864 7.24866C5.46179 7.00202 5.35019 6.77132 5.1921 6.57365C5.034 6.37599 4.83347 6.21642 4.60535 6.10676C4.37723 5.9971 4.12736 5.94017 3.87425 5.94017C3.62114 5.94017 3.37127 5.9971 3.14315 6.10676C2.91503 6.21642 2.7145 6.37599 2.5564 6.57365C2.39831 6.77132 2.28671 7.00202 2.22986 7.24866C2.17301 7.4953 2.17238 7.75158 2.228 7.9985H5.5205ZM13.4795 7.9985H16.7705C16.8261 7.75158 16.8255 7.4953 16.7686 7.24866C16.7118 7.00202 16.6002 6.77132 16.4421 6.57365C16.284 6.37599 16.0835 6.21642 15.8554 6.10676C15.6272 5.9971 15.3774 5.94017 15.1243 5.94017C14.8711 5.94017 14.6213 5.9971 14.3932 6.10676C14.165 6.21642 13.9645 6.37599 13.8064 6.57365C13.6483 6.77132 13.5367 7.00202 13.4799 7.24866C13.423 7.4953 13.4224 7.75158 13.478 7.9985H13.4795ZM9.5 16.25C11.3595 16.25 13.1527 15.5592 14.5317 14.3116C15.9106 13.0641 16.7769 11.3487 16.9625 9.4985H2.0375C2.22308 11.3487 3.08939 13.0641 4.46832 14.3116C5.84726 15.5592 7.64047 16.25 9.5 16.25ZM6.5 20.0015H12.5C12.6989 20.0015 12.8897 20.0805 13.0303 20.2212C13.171 20.3618 13.25 20.5526 13.25 20.7515C13.25 20.9504 13.171 21.1412 13.0303 21.2818C12.8897 21.4225 12.6989 21.5015 12.5 21.5015H6.5C6.30109 21.5015 6.11032 21.4225 5.96967 21.2818C5.82902 21.1412 5.75 20.9504 5.75 20.7515C5.75 20.5526 5.82902 20.3618 5.96967 20.2212C6.11032 20.0805 6.30109 20.0015 6.5 20.0015Z" fill="#1C2024"/>
</svg>
