<svg width="14" height="14" viewBox="0 0 14 14" fill="none" xmlns="http://www.w3.org/2000/svg">
<path d="M13.3603 2.23128L11.7687 0.639685C11.3585 0.230044 10.8025 0 10.2227 0C9.64305 0 9.08707 0.230063 8.67684 0.639685L7.51588 1.80051L0.944086 8.3723C0.939318 8.37707 0.937851 8.38367 0.933206 8.38868C0.874285 8.45029 0.826855 8.52181 0.79287 8.60004C0.784924 8.61825 0.781868 8.63671 0.775511 8.65542C0.760598 8.69221 0.74874 8.73011 0.740183 8.76886L0.0100253 13.15H0.00990281C-0.0253032 13.3617 0.0343514 13.5782 0.173096 13.7418C0.311842 13.9055 0.515612 14 0.730166 14C0.77026 13.9999 0.810357 13.9965 0.849963 13.99L5.23116 13.2598C5.26991 13.2511 5.30781 13.2393 5.34448 13.2244C5.36306 13.218 5.38176 13.215 5.39986 13.2071H5.39998C5.47809 13.1732 5.5496 13.1256 5.61121 13.0668C5.6161 13.0622 5.6227 13.0607 5.62759 13.0559L13.3604 5.32311C13.7699 4.91288 14 4.3569 14 3.77712C14 3.19745 13.7699 2.64148 13.3604 2.23124L13.3603 2.23128ZM1.6187 12.3812L1.94741 10.4081L3.59183 12.0525L1.6187 12.3812ZM12.3279 4.29044L11.6833 4.93504L9.06485 2.31671L9.70945 1.67211V1.67199C9.84588 1.53642 10.0305 1.46027 10.2229 1.46027C10.4153 1.46027 10.5999 1.53642 10.7363 1.67199L12.3279 3.26358C12.4638 3.39989 12.5402 3.58448 12.5402 3.777C12.5402 3.96952 12.4638 4.15412 12.3279 4.29041L12.3279 4.29044Z" fill="#26BAFA"/>
</svg>
