<svg width="25" height="24" viewBox="0 0 25 24" fill="none" xmlns="http://www.w3.org/2000/svg">
<path d="M12.5 0C19.1274 0 24.5 5.40541 24.5 12.0733C24.5 18.0994 20.1118 23.0943 14.375 24V15.5633H17.1711L17.7031 12.0733H14.375V9.80958C14.375 8.8548 14.84 7.92313 16.3306 7.92313H17.8438V4.95195C17.8438 4.95195 17.6846 4.92463 17.4229 4.88859C17.0118 4.83198 16.3477 4.75386 15.6498 4.72628C15.4867 4.71983 15.3216 4.71615 15.1576 4.71615C12.4166 4.71615 10.625 6.38755 10.625 9.41343V12.0733H7.57812V15.5633H10.625V24C4.8882 23.0943 0.5 18.0994 0.5 12.0733C0.5 5.40541 5.87258 0 12.5 0Z" fill="#1877F2"/>
</svg>
