<svg width="21" height="19" viewBox="0 0 21 19" fill="none" xmlns="http://www.w3.org/2000/svg">
<path d="M17 8C17.351 6.983 17.426 5.764 17.5 4.286V3H15.244C12.414 3 10.628 3.804 9.604 5.076M2.5 8H18.5C18.7652 8 19.0196 8.10536 19.2071 8.29289C19.3946 8.48043 19.5 8.73478 19.5 9V9.5C19.5 11 16.983 15.073 15.5 16V17C15.5 17.2652 15.3946 17.5196 15.2071 17.7071C15.0196 17.8946 14.7652 18 14.5 18H6.5C6.23478 18 5.98043 17.8946 5.79289 17.7071C5.60536 17.5196 5.5 17.2652 5.5 17V16C3.813 14.946 1.5 11 1.5 9.5V9C1.5 8.73478 1.60536 8.48043 1.79289 8.29289C1.98043 8.10536 2.23478 8 2.5 8Z" stroke="black" stroke-width="1.5" stroke-linecap="round" stroke-linejoin="round"/>
<path d="M3.755 8.008C3.6136 7.34704 3.5283 6.67532 3.5 6V5H5.255C6.235 5 7.056 5.124 7.734 5.35M6.5 5L7.5 1L11.5 3.5" stroke="black" stroke-width="1.5" stroke-linecap="round" stroke-linejoin="round"/>
<path d="M11.5 8V7.5C11.5 6.83696 11.2366 6.20107 10.7678 5.73223C10.2989 5.26339 9.66304 5 9 5C8.33696 5 7.70107 5.26339 7.23223 5.73223C6.76339 6.20107 6.5 6.83696 6.5 7.5V8" stroke="black" stroke-width="1.5" stroke-linecap="round" stroke-linejoin="round"/>
</svg>
