<svg width="63" height="69" viewBox="0 0 63 69" fill="none" xmlns="http://www.w3.org/2000/svg">
<path d="M59.5295 18.1476H39.8305V22.7657C39.8305 26.0852 37.1608 28.8268 33.7694 28.8268H28.5021C25.1826 28.8268 22.441 26.1571 22.441 22.7657V18.1476H2.81414C1.22668 18.1476 0 19.4462 0 20.9617V65.7715C0 67.359 1.29858 68.5857 2.81414 68.5857H59.5299C61.1174 68.5857 62.344 67.2871 62.344 65.7715V20.9617C62.344 19.4467 61.1169 18.1476 59.5294 18.1476H59.5295ZM48.2731 29.3321C50.7989 29.3321 52.7467 31.3525 52.7467 33.8058C52.7467 36.259 50.7263 38.2794 48.2731 38.2794C45.8199 38.2794 43.7994 36.259 43.7994 33.8058C43.7994 31.3525 45.7478 29.3321 48.2731 29.3321ZM56.7155 61.8751C56.7155 62.4525 56.2102 62.9573 55.6333 62.9573H6.71059C6.13327 62.9573 5.62844 62.4519 5.62844 61.8751V58.4117C5.62844 58.1233 5.70041 57.9064 5.91685 57.6899L21.2142 40.1557C22.5128 38.6401 24.8941 38.6401 26.2651 40.1557L36.3669 51.773C36.7998 52.2784 37.5215 52.2784 37.9544 51.773L42.1395 47.227C43.3661 45.9284 45.3865 45.9284 46.6131 47.227L56.4271 58.1226C56.5715 58.339 56.7155 58.5555 56.7155 58.8444L56.7155 61.8751Z" fill="#D3D3D3"/>
<path d="M23.0902 14.1789H26.2652V22.7653C26.2652 23.9919 27.2754 25.002 28.502 25.002H33.7693C34.9959 25.002 36.0061 23.9918 36.0061 22.7653V14.1789H39.1811C40.9131 14.1789 41.8508 12.2305 40.7686 10.8594L32.6871 0.757634C31.8933 -0.252545 30.3059 -0.252545 29.512 0.757634L21.4305 10.8594C20.4923 12.2305 21.43 14.1789 23.09 14.1789H23.0902Z" fill="#D3D3D3"/>
</svg>
